<svg width="34" height="34" viewBox="0 0 34 34" fill="none" xmlns="http://www.w3.org/2000/svg">
<circle cx="17" cy="17" r="16.5" fill="white" stroke="black"/>
<path d="M17 0C26.3889 0 34 7.61116 34 17C34 26.3888 26.3889 34 17 34V0Z" fill="#00B628"/>
<path d="M16.8409 22.1591C16.1742 22.1591 15.5739 22.0265 15.0398 21.7614C14.5057 21.4962 14.0777 21.1326 13.7557 20.6705C13.4337 20.2083 13.2576 19.6818 13.2273 19.0909H14.5909C14.6439 19.6174 14.8826 20.053 15.3068 20.3977C15.7348 20.7386 16.2462 20.9091 16.8409 20.9091C17.3182 20.9091 17.7424 20.7973 18.1136 20.5739C18.4886 20.3504 18.7822 20.0436 18.9943 19.6534C19.2102 19.2595 19.3182 18.8144 19.3182 18.3182C19.3182 17.8106 19.2064 17.358 18.983 16.9602C18.7633 16.5587 18.4602 16.2424 18.0739 16.0114C17.6875 15.7803 17.2462 15.6629 16.75 15.6591C16.3939 15.6553 16.0284 15.7102 15.6534 15.8239C15.2784 15.9337 14.9697 16.0758 14.7273 16.25L13.4091 16.0909L14.1136 10.3636H20.1591V11.6136H15.2955L14.8864 15.0455H14.9545C15.1932 14.8561 15.4924 14.6989 15.8523 14.5739C16.2121 14.4489 16.5871 14.3864 16.9773 14.3864C17.6894 14.3864 18.3239 14.5568 18.8807 14.8977C19.4413 15.2348 19.8807 15.697 20.1989 16.2841C20.5208 16.8712 20.6818 17.5417 20.6818 18.2955C20.6818 19.0379 20.5152 19.7008 20.1818 20.2841C19.8523 20.8636 19.3977 21.322 18.8182 21.6591C18.2386 21.9924 17.5795 22.1591 16.8409 22.1591Z" fill="black"/>
</svg>
