<svg width="34" height="34" viewBox="0 0 34 34" fill="none" xmlns="http://www.w3.org/2000/svg">
<circle cx="17" cy="17" r="17" fill="#00B628"/>
<path d="M17 0C26.3889 0 34 7.61116 34 17C34 26.3888 26.3889 34 17 34V0Z" fill="#00B628"/>
<path d="M10.8409 22.1591C10.1742 22.1591 9.57386 22.0265 9.03977 21.7614C8.50568 21.4962 8.07765 21.1326 7.75568 20.6705C7.43371 20.2083 7.25758 19.6818 7.22727 19.0909H8.59091C8.64394 19.6174 8.88258 20.053 9.30682 20.3977C9.73485 20.7386 10.2462 20.9091 10.8409 20.9091C11.3182 20.9091 11.7424 20.7973 12.1136 20.5739C12.4886 20.3504 12.7822 20.0436 12.9943 19.6534C13.2102 19.2595 13.3182 18.8144 13.3182 18.3182C13.3182 17.8106 13.2064 17.358 12.983 16.9602C12.7633 16.5587 12.4602 16.2424 12.0739 16.0114C11.6875 15.7803 11.2462 15.6629 10.75 15.6591C10.3939 15.6553 10.0284 15.7102 9.65341 15.8239C9.27841 15.9337 8.9697 16.0758 8.72727 16.25L7.40909 16.0909L8.11364 10.3636H14.1591V11.6136H9.29545L8.88636 15.0455H8.95455C9.19318 14.8561 9.49242 14.6989 9.85227 14.5739C10.2121 14.4489 10.5871 14.3864 10.9773 14.3864C11.6894 14.3864 12.3239 14.5568 12.8807 14.8977C13.4413 15.2348 13.8807 15.697 14.1989 16.2841C14.5208 16.8712 14.6818 17.5417 14.6818 18.2955C14.6818 19.0379 14.5152 19.7008 14.1818 20.2841C13.8523 20.8636 13.3977 21.322 12.8182 21.6591C12.2386 21.9924 11.5795 22.1591 10.8409 22.1591ZM20.5071 22.1818C19.6889 22.1818 18.9844 21.9886 18.3935 21.6023C17.8026 21.2159 17.348 20.6837 17.0298 20.0057C16.7116 19.3277 16.5526 18.553 16.5526 17.6818C16.5526 16.7955 16.7154 16.0133 17.0412 15.3352C17.3707 14.6534 17.8291 14.1212 18.4162 13.7386C19.0071 13.3523 19.6965 13.1591 20.4844 13.1591C21.098 13.1591 21.651 13.2727 22.1435 13.5C22.6359 13.7273 23.0393 14.0455 23.3537 14.4545C23.6681 14.8636 23.8632 15.3409 23.9389 15.8864H22.598C22.4957 15.4886 22.2685 15.1364 21.9162 14.8295C21.5677 14.5189 21.098 14.3636 20.5071 14.3636C19.9844 14.3636 19.526 14.5 19.1321 14.7727C18.742 15.0417 18.437 15.4223 18.2173 15.9148C18.0014 16.4034 17.8935 16.9773 17.8935 17.6364C17.8935 18.3106 17.9995 18.8977 18.2116 19.3977C18.4276 19.8977 18.7306 20.286 19.1207 20.5625C19.5147 20.839 19.9768 20.9773 20.5071 20.9773C20.8556 20.9773 21.1719 20.9167 21.456 20.7955C21.7401 20.6742 21.9806 20.5 22.1776 20.2727C22.3745 20.0455 22.5147 19.7727 22.598 19.4545H23.9389C23.8632 19.9697 23.6757 20.4337 23.3764 20.8466C23.081 21.2557 22.6889 21.5814 22.2003 21.8239C21.7154 22.0625 21.151 22.1818 20.5071 22.1818Z" fill="white"/>
</svg>
