<svg width="34" height="34" viewBox="0 0 34 34" fill="none" xmlns="http://www.w3.org/2000/svg">
<circle cx="17" cy="17" r="17" fill="#00B628"/>
<path d="M17 0C26.3889 0 34 7.61116 34 17C34 26.3888 26.3889 34 17 34V0Z" fill="#2A58CD"/>
<path d="M11.0682 22.1591C10.5909 22.1515 10.1136 22.0606 9.63636 21.8864C9.15909 21.7121 8.72348 21.4186 8.32955 21.0057C7.93561 20.589 7.61932 20.0265 7.38068 19.3182C7.14205 18.6061 7.02273 17.7121 7.02273 16.6364C7.02273 15.6061 7.11932 14.6932 7.3125 13.8977C7.50568 13.0985 7.78598 12.4261 8.15341 11.8807C8.52083 11.3314 8.96402 10.9148 9.48295 10.6307C10.0057 10.3466 10.5947 10.2045 11.25 10.2045C11.9015 10.2045 12.4811 10.3352 12.9886 10.5966C13.5 10.8542 13.9167 11.214 14.2386 11.6761C14.5606 12.1383 14.7689 12.6705 14.8636 13.2727H13.4773C13.3485 12.75 13.0985 12.3163 12.7273 11.9716C12.3561 11.6269 11.8636 11.4545 11.25 11.4545C10.3485 11.4545 9.63826 11.8466 9.11932 12.6307C8.60417 13.4148 8.3447 14.5152 8.34091 15.9318H8.43182C8.64394 15.6098 8.89583 15.3352 9.1875 15.108C9.48295 14.8769 9.80871 14.6989 10.1648 14.5739C10.5208 14.4489 10.8977 14.3864 11.2955 14.3864C11.9621 14.3864 12.572 14.553 13.125 14.8864C13.678 15.2159 14.1212 15.6723 14.4545 16.2557C14.7879 16.8352 14.9545 17.5 14.9545 18.25C14.9545 18.9697 14.7936 19.6288 14.4716 20.2273C14.1496 20.822 13.697 21.2955 13.1136 21.6477C12.5341 21.9962 11.8523 22.1667 11.0682 22.1591ZM11.0682 20.9091C11.5455 20.9091 11.9735 20.7898 12.3523 20.5511C12.7348 20.3125 13.036 19.9924 13.2557 19.5909C13.4792 19.1894 13.5909 18.7424 13.5909 18.25C13.5909 17.7689 13.483 17.3314 13.267 16.9375C13.0549 16.5398 12.7614 16.2235 12.3864 15.9886C12.0152 15.7538 11.5909 15.6364 11.1136 15.6364C10.7538 15.6364 10.4186 15.7083 10.108 15.8523C9.79735 15.9924 9.52462 16.1856 9.28977 16.4318C9.05871 16.678 8.87689 16.9602 8.74432 17.2784C8.61174 17.5928 8.54545 17.9242 8.54545 18.2727C8.54545 18.7348 8.65341 19.1667 8.86932 19.5682C9.08902 19.9697 9.38826 20.2936 9.76705 20.5398C10.1496 20.786 10.5833 20.9091 11.0682 20.9091ZM19.7798 22.2045C19.2268 22.2045 18.7249 22.1004 18.2741 21.892C17.8234 21.6799 17.4654 21.375 17.2003 20.9773C16.9351 20.5758 16.8026 20.0909 16.8026 19.5227C16.8026 19.0227 16.901 18.6174 17.098 18.3068C17.295 17.9924 17.5582 17.7462 17.8878 17.5682C18.2173 17.3902 18.581 17.2576 18.9787 17.1705C19.3802 17.0795 19.7836 17.0076 20.1889 16.9545C20.7192 16.8864 21.1491 16.8352 21.4787 16.8011C21.812 16.7633 22.0545 16.7008 22.206 16.6136C22.3613 16.5265 22.4389 16.375 22.4389 16.1591V16.1136C22.4389 15.553 22.2855 15.1174 21.9787 14.8068C21.6757 14.4962 21.2154 14.3409 20.598 14.3409C19.9579 14.3409 19.456 14.4811 19.0923 14.7614C18.7287 15.0417 18.473 15.3409 18.3253 15.6591L17.0526 15.2045C17.2798 14.6742 17.5829 14.2614 17.9616 13.9659C18.3442 13.6667 18.7609 13.4583 19.2116 13.3409C19.6662 13.2197 20.1132 13.1591 20.5526 13.1591C20.8329 13.1591 21.1548 13.1932 21.5185 13.2614C21.8859 13.3258 22.2401 13.4602 22.581 13.6648C22.9257 13.8693 23.2116 14.178 23.4389 14.5909C23.6662 15.0038 23.7798 15.5568 23.7798 16.25V22H22.4389V20.8182H22.3707C22.2798 21.0076 22.1283 21.2102 21.9162 21.4261C21.7041 21.642 21.4219 21.8258 21.0696 21.9773C20.7173 22.1288 20.2874 22.2045 19.7798 22.2045ZM19.9844 21C20.5147 21 20.9616 20.8958 21.3253 20.6875C21.6927 20.4792 21.9692 20.2102 22.1548 19.8807C22.3442 19.5511 22.4389 19.2045 22.4389 18.8409V17.6136C22.3821 17.6818 22.2571 17.7443 22.0639 17.8011C21.8745 17.8542 21.6548 17.9015 21.4048 17.9432C21.1586 17.9811 20.9181 18.0152 20.6832 18.0455C20.4522 18.072 20.2647 18.0947 20.1207 18.1136C19.7723 18.1591 19.4465 18.233 19.1435 18.3352C18.8442 18.4337 18.6018 18.5833 18.4162 18.7841C18.2344 18.9811 18.1435 19.25 18.1435 19.5909C18.1435 20.0568 18.3158 20.4091 18.6605 20.6477C19.009 20.8826 19.4503 21 19.9844 21Z" fill="white"/>
</svg>
