<svg width="34" height="34" viewBox="0 0 34 34" fill="none" xmlns="http://www.w3.org/2000/svg">
<circle cx="17" cy="17" r="17" fill="#2A58CD"/>
<path d="M11.0682 22.1591C10.5909 22.1515 10.1136 22.0606 9.63636 21.8864C9.15909 21.7121 8.72348 21.4186 8.32955 21.0057C7.93561 20.589 7.61932 20.0265 7.38068 19.3182C7.14205 18.6061 7.02273 17.7121 7.02273 16.6364C7.02273 15.6061 7.11932 14.6932 7.3125 13.8977C7.50568 13.0985 7.78598 12.4261 8.15341 11.8807C8.52083 11.3314 8.96402 10.9148 9.48295 10.6307C10.0057 10.3466 10.5947 10.2045 11.25 10.2045C11.9015 10.2045 12.4811 10.3352 12.9886 10.5966C13.5 10.8542 13.9167 11.214 14.2386 11.6761C14.5606 12.1383 14.7689 12.6705 14.8636 13.2727H13.4773C13.3485 12.75 13.0985 12.3163 12.7273 11.9716C12.3561 11.6269 11.8636 11.4545 11.25 11.4545C10.3485 11.4545 9.63826 11.8466 9.11932 12.6307C8.60417 13.4148 8.3447 14.5152 8.34091 15.9318H8.43182C8.64394 15.6098 8.89583 15.3352 9.1875 15.108C9.48295 14.8769 9.80871 14.6989 10.1648 14.5739C10.5208 14.4489 10.8977 14.3864 11.2955 14.3864C11.9621 14.3864 12.572 14.553 13.125 14.8864C13.678 15.2159 14.1212 15.6723 14.4545 16.2557C14.7879 16.8352 14.9545 17.5 14.9545 18.25C14.9545 18.9697 14.7936 19.6288 14.4716 20.2273C14.1496 20.822 13.697 21.2955 13.1136 21.6477C12.5341 21.9962 11.8523 22.1667 11.0682 22.1591ZM11.0682 20.9091C11.5455 20.9091 11.9735 20.7898 12.3523 20.5511C12.7348 20.3125 13.036 19.9924 13.2557 19.5909C13.4792 19.1894 13.5909 18.7424 13.5909 18.25C13.5909 17.7689 13.483 17.3314 13.267 16.9375C13.0549 16.5398 12.7614 16.2235 12.3864 15.9886C12.0152 15.7538 11.5909 15.6364 11.1136 15.6364C10.7538 15.6364 10.4186 15.7083 10.108 15.8523C9.79735 15.9924 9.52462 16.1856 9.28977 16.4318C9.05871 16.678 8.87689 16.9602 8.74432 17.2784C8.61174 17.5928 8.54545 17.9242 8.54545 18.2727C8.54545 18.7348 8.65341 19.1667 8.86932 19.5682C9.08902 19.9697 9.38826 20.2936 9.76705 20.5398C10.1496 20.786 10.5833 20.9091 11.0682 20.9091ZM17.3935 22V10.3636H18.7344V14.6591H18.848C18.9465 14.5076 19.0829 14.3144 19.2571 14.0795C19.4351 13.8409 19.6889 13.6288 20.0185 13.4432C20.3518 13.2538 20.8026 13.1591 21.3707 13.1591C22.1056 13.1591 22.7533 13.3428 23.3139 13.7102C23.8745 14.0777 24.312 14.5985 24.6264 15.2727C24.9408 15.947 25.098 16.7424 25.098 17.6591C25.098 18.5833 24.9408 19.3845 24.6264 20.0625C24.312 20.7367 23.8764 21.2595 23.3196 21.6307C22.7628 21.9981 22.1207 22.1818 21.3935 22.1818C20.8329 22.1818 20.384 22.089 20.0469 21.9034C19.7098 21.714 19.4503 21.5 19.2685 21.2614C19.0866 21.0189 18.9465 20.8182 18.848 20.6591H18.6889V22H17.3935ZM18.7116 17.6364C18.7116 18.2955 18.8082 18.8769 19.0014 19.3807C19.1946 19.8807 19.4768 20.2727 19.848 20.5568C20.2192 20.8371 20.6738 20.9773 21.2116 20.9773C21.7723 20.9773 22.2401 20.8295 22.6151 20.5341C22.9938 20.2348 23.2779 19.8333 23.4673 19.3295C23.6605 18.822 23.7571 18.2576 23.7571 17.6364C23.7571 17.0227 23.6624 16.4697 23.473 15.9773C23.2874 15.4811 23.0052 15.089 22.6264 14.8011C22.2514 14.5095 21.7798 14.3636 21.2116 14.3636C20.6662 14.3636 20.2079 14.5019 19.8366 14.7784C19.4654 15.0511 19.1851 15.4337 18.9957 15.9261C18.8063 16.4148 18.7116 16.9848 18.7116 17.6364Z" fill="white"/>
</svg>
