<svg width="34" height="34" viewBox="0 0 34 34" fill="none" xmlns="http://www.w3.org/2000/svg">
<circle cx="17" cy="17" r="17" fill="#2A58CD"/>
<path d="M17 0C26.3889 0 34 7.61116 34 17C34 26.3888 26.3889 34 17 34V0Z" fill="#EF0000"/>
<path d="M11.0682 22.1591C10.5909 22.1515 10.1136 22.0606 9.63636 21.8864C9.15909 21.7121 8.72348 21.4186 8.32955 21.0057C7.93561 20.589 7.61932 20.0265 7.38068 19.3182C7.14205 18.6061 7.02273 17.7121 7.02273 16.6364C7.02273 15.6061 7.11932 14.6932 7.3125 13.8977C7.50568 13.0985 7.78598 12.4261 8.15341 11.8807C8.52083 11.3314 8.96402 10.9148 9.48295 10.6307C10.0057 10.3466 10.5947 10.2045 11.25 10.2045C11.9015 10.2045 12.4811 10.3352 12.9886 10.5966C13.5 10.8542 13.9167 11.214 14.2386 11.6761C14.5606 12.1383 14.7689 12.6705 14.8636 13.2727H13.4773C13.3485 12.75 13.0985 12.3163 12.7273 11.9716C12.3561 11.6269 11.8636 11.4545 11.25 11.4545C10.3485 11.4545 9.63826 11.8466 9.11932 12.6307C8.60417 13.4148 8.3447 14.5152 8.34091 15.9318H8.43182C8.64394 15.6098 8.89583 15.3352 9.1875 15.108C9.48295 14.8769 9.80871 14.6989 10.1648 14.5739C10.5208 14.4489 10.8977 14.3864 11.2955 14.3864C11.9621 14.3864 12.572 14.553 13.125 14.8864C13.678 15.2159 14.1212 15.6723 14.4545 16.2557C14.7879 16.8352 14.9545 17.5 14.9545 18.25C14.9545 18.9697 14.7936 19.6288 14.4716 20.2273C14.1496 20.822 13.697 21.2955 13.1136 21.6477C12.5341 21.9962 11.8523 22.1667 11.0682 22.1591ZM11.0682 20.9091C11.5455 20.9091 11.9735 20.7898 12.3523 20.5511C12.7348 20.3125 13.036 19.9924 13.2557 19.5909C13.4792 19.1894 13.5909 18.7424 13.5909 18.25C13.5909 17.7689 13.483 17.3314 13.267 16.9375C13.0549 16.5398 12.7614 16.2235 12.3864 15.9886C12.0152 15.7538 11.5909 15.6364 11.1136 15.6364C10.7538 15.6364 10.4186 15.7083 10.108 15.8523C9.79735 15.9924 9.52462 16.1856 9.28977 16.4318C9.05871 16.678 8.87689 16.9602 8.74432 17.2784C8.61174 17.5928 8.54545 17.9242 8.54545 18.2727C8.54545 18.7348 8.65341 19.1667 8.86932 19.5682C9.08902 19.9697 9.38826 20.2936 9.76705 20.5398C10.1496 20.786 10.5833 20.9091 11.0682 20.9091ZM20.7571 22.1818C19.9389 22.1818 19.2344 21.9886 18.6435 21.6023C18.0526 21.2159 17.598 20.6837 17.2798 20.0057C16.9616 19.3277 16.8026 18.553 16.8026 17.6818C16.8026 16.7955 16.9654 16.0133 17.2912 15.3352C17.6207 14.6534 18.0791 14.1212 18.6662 13.7386C19.2571 13.3523 19.9465 13.1591 20.7344 13.1591C21.348 13.1591 21.901 13.2727 22.3935 13.5C22.8859 13.7273 23.2893 14.0455 23.6037 14.4545C23.9181 14.8636 24.1132 15.3409 24.1889 15.8864H22.848C22.7457 15.4886 22.5185 15.1364 22.1662 14.8295C21.8177 14.5189 21.348 14.3636 20.7571 14.3636C20.2344 14.3636 19.776 14.5 19.3821 14.7727C18.992 15.0417 18.687 15.4223 18.4673 15.9148C18.2514 16.4034 18.1435 16.9773 18.1435 17.6364C18.1435 18.3106 18.2495 18.8977 18.4616 19.3977C18.6776 19.8977 18.9806 20.286 19.3707 20.5625C19.7647 20.839 20.2268 20.9773 20.7571 20.9773C21.1056 20.9773 21.4219 20.9167 21.706 20.7955C21.9901 20.6742 22.2306 20.5 22.4276 20.2727C22.6245 20.0455 22.7647 19.7727 22.848 19.4545H24.1889C24.1132 19.9697 23.9257 20.4337 23.6264 20.8466C23.331 21.2557 22.9389 21.5814 22.4503 21.8239C21.9654 22.0625 21.401 22.1818 20.7571 22.1818Z" fill="white"/>
</svg>
