<svg width="34" height="34" viewBox="0 0 34 34" fill="none" xmlns="http://www.w3.org/2000/svg">
<circle cx="17" cy="17" r="17" fill="#EF0000"/>
<path d="M10.5682 22L15.7727 11.7045V11.6136H9.77273V10.3636H17.2273V11.6818L12.0455 22H10.5682ZM21.2017 22.2045C20.6487 22.2045 20.1468 22.1004 19.696 21.892C19.2453 21.6799 18.8873 21.375 18.6222 20.9773C18.357 20.5758 18.2244 20.0909 18.2244 19.5227C18.2244 19.0227 18.3229 18.6174 18.5199 18.3068C18.7169 17.9924 18.9801 17.7462 19.3097 17.5682C19.6392 17.3902 20.0028 17.2576 20.4006 17.1705C20.8021 17.0795 21.2055 17.0076 21.6108 16.9545C22.1411 16.8864 22.571 16.8352 22.9006 16.8011C23.2339 16.7633 23.4763 16.7008 23.6278 16.6136C23.7831 16.5265 23.8608 16.375 23.8608 16.1591V16.1136C23.8608 15.553 23.7074 15.1174 23.4006 14.8068C23.0975 14.4962 22.6373 14.3409 22.0199 14.3409C21.3797 14.3409 20.8778 14.4811 20.5142 14.7614C20.1506 15.0417 19.8949 15.3409 19.7472 15.6591L18.4744 15.2045C18.7017 14.6742 19.0047 14.2614 19.3835 13.9659C19.7661 13.6667 20.1828 13.4583 20.6335 13.3409C21.0881 13.2197 21.535 13.1591 21.9744 13.1591C22.2547 13.1591 22.5767 13.1932 22.9403 13.2614C23.3078 13.3258 23.6619 13.4602 24.0028 13.6648C24.3475 13.8693 24.6335 14.178 24.8608 14.5909C25.0881 15.0038 25.2017 15.5568 25.2017 16.25V22H23.8608V20.8182H23.7926C23.7017 21.0076 23.5502 21.2102 23.3381 21.4261C23.1259 21.642 22.8438 21.8258 22.4915 21.9773C22.1392 22.1288 21.7093 22.2045 21.2017 22.2045ZM21.4062 21C21.9366 21 22.3835 20.8958 22.7472 20.6875C23.1146 20.4792 23.3911 20.2102 23.5767 19.8807C23.7661 19.5511 23.8608 19.2045 23.8608 18.8409V17.6136C23.804 17.6818 23.679 17.7443 23.4858 17.8011C23.2964 17.8542 23.0767 17.9015 22.8267 17.9432C22.5805 17.9811 22.34 18.0152 22.1051 18.0455C21.8741 18.072 21.6866 18.0947 21.5426 18.1136C21.1941 18.1591 20.8684 18.233 20.5653 18.3352C20.2661 18.4337 20.0237 18.5833 19.8381 18.7841C19.6563 18.9811 19.5653 19.25 19.5653 19.5909C19.5653 20.0568 19.7377 20.4091 20.0824 20.6477C20.4309 20.8826 20.8722 21 21.4062 21Z" fill="white"/>
</svg>
