<svg width="34" height="34" viewBox="0 0 34 34" fill="none" xmlns="http://www.w3.org/2000/svg">
<circle cx="17" cy="17" r="17" fill="#EF0000"/>
<path d="M17 0C26.3889 0 34 7.61116 34 17C34 26.3888 26.3889 34 17 34V0Z" fill="#FFF500"/>
<path d="M7.56818 22L12.7727 11.7045V11.6136H6.77273V10.3636H14.2273V11.6818L9.04545 22H7.56818ZM16.5497 22V10.3636H17.8906V14.6591H18.0043C18.1027 14.5076 18.2391 14.3144 18.4134 14.0795C18.5914 13.8409 18.8452 13.6288 19.1747 13.4432C19.508 13.2538 19.9588 13.1591 20.527 13.1591C21.2618 13.1591 21.9096 13.3428 22.4702 13.7102C23.0308 14.0777 23.4683 14.5985 23.7827 15.2727C24.0971 15.947 24.2543 16.7424 24.2543 17.6591C24.2543 18.5833 24.0971 19.3845 23.7827 20.0625C23.4683 20.7367 23.0327 21.2595 22.4759 21.6307C21.919 21.9981 21.277 22.1818 20.5497 22.1818C19.9891 22.1818 19.5402 22.089 19.2031 21.9034C18.866 21.714 18.6065 21.5 18.4247 21.2614C18.2429 21.0189 18.1027 20.8182 18.0043 20.6591H17.8452V22H16.5497ZM17.8679 17.6364C17.8679 18.2955 17.9645 18.8769 18.1577 19.3807C18.3509 19.8807 18.633 20.2727 19.0043 20.5568C19.3755 20.8371 19.83 20.9773 20.3679 20.9773C20.9285 20.9773 21.3963 20.8295 21.7713 20.5341C22.1501 20.2348 22.4342 19.8333 22.6236 19.3295C22.8168 18.822 22.9134 18.2576 22.9134 17.6364C22.9134 17.0227 22.8187 16.4697 22.6293 15.9773C22.4437 15.4811 22.1615 15.089 21.7827 14.8011C21.4077 14.5095 20.9361 14.3636 20.3679 14.3636C19.8224 14.3636 19.3641 14.5019 18.9929 14.7784C18.6217 15.0511 18.3414 15.4337 18.152 15.9261C17.9626 16.4148 17.8679 16.9848 17.8679 17.6364Z" fill="white"/>
</svg>
