<svg width="34" height="34" viewBox="0 0 34 34" fill="none" xmlns="http://www.w3.org/2000/svg">
<circle cx="17" cy="17" r="17" fill="#FFF500"/>
<path d="M10.5682 22L15.7727 11.7045V11.6136H9.77273V10.3636H17.2273V11.6818L12.0455 22H10.5682ZM22.1009 22.1818C21.2827 22.1818 20.5781 21.9886 19.9872 21.6023C19.3963 21.2159 18.9418 20.6837 18.6236 20.0057C18.3054 19.3277 18.1463 18.553 18.1463 17.6818C18.1463 16.7955 18.3092 16.0133 18.6349 15.3352C18.9645 14.6534 19.4228 14.1212 20.0099 13.7386C20.6009 13.3523 21.2902 13.1591 22.0781 13.1591C22.6918 13.1591 23.2448 13.2727 23.7372 13.5C24.2296 13.7273 24.633 14.0455 24.9474 14.4545C25.2618 14.8636 25.4569 15.3409 25.5327 15.8864H24.1918C24.0895 15.4886 23.8622 15.1364 23.5099 14.8295C23.1615 14.5189 22.6918 14.3636 22.1009 14.3636C21.5781 14.3636 21.1198 14.5 20.7259 14.7727C20.3357 15.0417 20.0308 15.4223 19.8111 15.9148C19.5952 16.4034 19.4872 16.9773 19.4872 17.6364C19.4872 18.3106 19.5933 18.8977 19.8054 19.3977C20.0213 19.8977 20.3243 20.286 20.7145 20.5625C21.1084 20.839 21.5705 20.9773 22.1009 20.9773C22.4493 20.9773 22.7656 20.9167 23.0497 20.7955C23.3338 20.6742 23.5743 20.5 23.7713 20.2727C23.9683 20.0455 24.1084 19.7727 24.1918 19.4545H25.5327C25.4569 19.9697 25.2694 20.4337 24.9702 20.8466C24.6747 21.2557 24.2827 21.5814 23.794 21.8239C23.3092 22.0625 22.7448 22.1818 22.1009 22.1818Z" fill="white"/>
</svg>
