<svg width="34" height="34" viewBox="0 0 34 34" fill="none" xmlns="http://www.w3.org/2000/svg">
<circle cx="17" cy="17" r="17" fill="black"/>
<path d="M17 0C26.3889 0 34 7.61116 34 17C34 26.3888 26.3889 34 17 34V0Z" fill="black"/>
<path d="M13.9318 22.1591C13.1515 22.1591 12.4621 22.0208 11.8636 21.7443C11.2689 21.464 10.8049 21.0795 10.4716 20.5909C10.1383 20.0985 9.97348 19.5379 9.97727 18.9091C9.97348 18.4167 10.0701 17.9621 10.267 17.5455C10.464 17.125 10.733 16.7746 11.0739 16.4943C11.4186 16.2102 11.803 16.0303 12.2273 15.9545V15.8864C11.6705 15.7424 11.2273 15.4299 10.8977 14.9489C10.5682 14.464 10.4053 13.9129 10.4091 13.2955C10.4053 12.7045 10.5549 12.1761 10.858 11.7102C11.161 11.2443 11.5777 10.8769 12.108 10.608C12.642 10.339 13.25 10.2045 13.9318 10.2045C14.6061 10.2045 15.2083 10.339 15.7386 10.608C16.2689 10.8769 16.6856 11.2443 16.9886 11.7102C17.2955 12.1761 17.4508 12.7045 17.4545 13.2955C17.4508 13.9129 17.2822 14.464 16.9489 14.9489C16.6193 15.4299 16.1818 15.7424 15.6364 15.8864V15.9545C16.0568 16.0303 16.4356 16.2102 16.7727 16.4943C17.1098 16.7746 17.3788 17.125 17.5795 17.5455C17.7803 17.9621 17.8826 18.4167 17.8864 18.9091C17.8826 19.5379 17.7121 20.0985 17.375 20.5909C17.0417 21.0795 16.5777 21.464 15.983 21.7443C15.392 22.0208 14.7083 22.1591 13.9318 22.1591ZM13.9318 20.9091C14.4583 20.9091 14.9129 20.8239 15.2955 20.6534C15.678 20.483 15.9735 20.2424 16.1818 19.9318C16.3902 19.6212 16.4962 19.2576 16.5 18.8409C16.4962 18.4015 16.3826 18.0133 16.1591 17.6761C15.9356 17.339 15.6307 17.0739 15.2443 16.8807C14.8617 16.6875 14.4242 16.5909 13.9318 16.5909C13.4356 16.5909 12.9924 16.6875 12.6023 16.8807C12.2159 17.0739 11.911 17.339 11.6875 17.6761C11.4678 18.0133 11.3598 18.4015 11.3636 18.8409C11.3598 19.2576 11.4602 19.6212 11.6648 19.9318C11.8731 20.2424 12.1705 20.483 12.5568 20.6534C12.9432 20.8239 13.4015 20.9091 13.9318 20.9091ZM13.9318 15.3864C14.3485 15.3864 14.7178 15.303 15.0398 15.1364C15.3655 14.9697 15.6212 14.7367 15.8068 14.4375C15.9924 14.1383 16.0871 13.7879 16.0909 13.3864C16.0871 12.9924 15.9943 12.6496 15.8125 12.358C15.6307 12.0625 15.3788 11.8352 15.0568 11.6761C14.7348 11.5133 14.3598 11.4318 13.9318 11.4318C13.4962 11.4318 13.1155 11.5133 12.7898 11.6761C12.464 11.8352 12.2121 12.0625 12.0341 12.358C11.8561 12.6496 11.7689 12.9924 11.7727 13.3864C11.7689 13.7879 11.858 14.1383 12.0398 14.4375C12.2254 14.7367 12.4811 14.9697 12.8068 15.1364C13.1326 15.303 13.5076 15.3864 13.9318 15.3864ZM22.6548 22.2045C22.1018 22.2045 21.5999 22.1004 21.1491 21.892C20.6984 21.6799 20.3404 21.375 20.0753 20.9773C19.8101 20.5758 19.6776 20.0909 19.6776 19.5227C19.6776 19.0227 19.776 18.6174 19.973 18.3068C20.17 17.9924 20.4332 17.7462 20.7628 17.5682C21.0923 17.3902 21.456 17.2576 21.8537 17.1705C22.2552 17.0795 22.6586 17.0076 23.0639 16.9545C23.5942 16.8864 24.0241 16.8352 24.3537 16.8011C24.687 16.7633 24.9295 16.7008 25.081 16.6136C25.2363 16.5265 25.3139 16.375 25.3139 16.1591V16.1136C25.3139 15.553 25.1605 15.1174 24.8537 14.8068C24.5507 14.4962 24.0904 14.3409 23.473 14.3409C22.8329 14.3409 22.331 14.4811 21.9673 14.7614C21.6037 15.0417 21.348 15.3409 21.2003 15.6591L19.9276 15.2045C20.1548 14.6742 20.4579 14.2614 20.8366 13.9659C21.2192 13.6667 21.6359 13.4583 22.0866 13.3409C22.5412 13.2197 22.9882 13.1591 23.4276 13.1591C23.7079 13.1591 24.0298 13.1932 24.3935 13.2614C24.7609 13.3258 25.1151 13.4602 25.456 13.6648C25.8007 13.8693 26.0866 14.178 26.3139 14.5909C26.5412 15.0038 26.6548 15.5568 26.6548 16.25V22H25.3139V20.8182H25.2457C25.1548 21.0076 25.0033 21.2102 24.7912 21.4261C24.5791 21.642 24.2969 21.8258 23.9446 21.9773C23.5923 22.1288 23.1624 22.2045 22.6548 22.2045ZM22.8594 21C23.3897 21 23.8366 20.8958 24.2003 20.6875C24.5677 20.4792 24.8442 20.2102 25.0298 19.8807C25.2192 19.5511 25.3139 19.2045 25.3139 18.8409V17.6136C25.2571 17.6818 25.1321 17.7443 24.9389 17.8011C24.7495 17.8542 24.5298 17.9015 24.2798 17.9432C24.0336 17.9811 23.7931 18.0152 23.5582 18.0455C23.3272 18.072 23.1397 18.0947 22.9957 18.1136C22.6473 18.1591 22.3215 18.233 22.0185 18.3352C21.7192 18.4337 21.4768 18.5833 21.2912 18.7841C21.1094 18.9811 21.0185 19.25 21.0185 19.5909C21.0185 20.0568 21.1908 20.4091 21.5355 20.6477C21.884 20.8826 22.3253 21 22.8594 21Z" fill="white"/>
</svg>
