<svg width="117" height="117" viewBox="0 0 117 117" fill="none" xmlns="http://www.w3.org/2000/svg">
<circle cx="58.5" cy="58.5" r="58.5" fill="#111110"/>
<path d="M85.1844 80.2528C87.1301 78.2397 90.3185 77.7499 92.3524 79.6737C96.3679 83.4722 99.7536 87.9297 102.338 92.8719C103.216 94.5522 102.938 96.5946 101.657 97.993C90.9618 109.674 75.587 117 58.5009 117C41.0489 117 25.3831 109.357 14.6649 97.2362C13.4088 95.8157 13.1646 93.7683 14.0721 92.1034C16.4718 87.7018 19.514 83.7002 23.0721 80.2255C25.0752 78.2696 28.2707 78.7083 30.2479 80.6903C37.217 87.676 46.8537 91.9998 57.5009 91.9999C68.369 91.9998 78.1844 87.4954 85.1844 80.2528ZM87.8671 52.1678C87.9544 53.1001 88.0008 54.0448 88.0009 54.9999C88.0009 71.5684 74.5693 84.9998 58.0009 84.9999C41.4324 84.9998 28.0009 71.5684 28.0009 54.9999C28.0009 49.9881 29.2312 45.264 31.4042 41.1112L87.8671 52.1678Z" fill="white"/>
<path d="M90.3272 40.343C91.411 40.5555 92.1177 41.6063 91.9054 42.6902L90.7916 48.3761C90.5793 49.4599 89.5283 50.1664 88.4445 49.9543L30.9627 38.6944C29.8787 38.4821 29.1721 37.4312 29.3845 36.3472L30.4983 30.6613C30.7106 29.5774 31.7615 28.8708 32.8454 29.0831L35.1541 29.5353C36.5411 22.4545 40.6846 16.2149 46.6723 12.1887C52.6599 8.16259 60.0018 6.67968 67.0826 8.0666C74.1635 9.45366 80.4041 13.5972 84.4302 19.585C88.4562 25.5727 89.9384 32.9144 88.5514 39.9952L90.3272 40.343Z" fill="#00B628"/>
</svg>
