<svg width="117" height="117" viewBox="0 0 117 117" fill="none" xmlns="http://www.w3.org/2000/svg">
<circle cx="58.5" cy="58.5" r="58.5" fill="#EEEEEF"/>
<path d="M85.185 80.2528C87.1307 78.24 90.3182 77.7511 92.352 79.6747C96.3674 83.4728 99.7542 87.929 102.338 92.871C103.217 94.5512 102.938 96.5946 101.658 97.993C90.9623 109.674 75.5869 117 58.5005 117C41.0487 117 25.3827 109.357 14.6645 97.2372C13.4083 95.8166 13.165 93.7684 14.0727 92.1034C16.4723 87.702 19.5138 83.7011 23.0717 80.2264C25.0747 78.2704 28.2702 78.7085 30.2475 80.6903C37.2166 87.6762 46.8532 91.9998 57.5005 91.9999C68.3687 91.9999 78.1848 87.4956 85.185 80.2528ZM87.8667 52.1678C87.954 53.1001 88.0005 54.0448 88.0005 54.9999C88.0005 71.5684 74.569 84.9999 58.0005 84.9999C41.4321 84.9997 28.0005 71.5683 28.0005 54.9999C28.0005 49.9881 29.2308 45.264 31.4038 41.1112L87.8667 52.1678Z" fill="#00B628"/>
<path d="M90.3272 40.343C91.411 40.5555 92.1177 41.6063 91.9054 42.6902L90.7916 48.3761C90.5793 49.4599 89.5283 50.1664 88.4445 49.9543L30.9627 38.6944C29.8787 38.4821 29.1721 37.4312 29.3845 36.3472L30.4982 30.6613C30.7106 29.5774 31.7614 28.8708 32.8454 29.0831L35.1541 29.5353C36.5411 22.4545 40.6846 16.2149 46.6722 12.1887C52.6599 8.16259 60.0018 6.67968 67.0826 8.0666C74.1635 9.45366 80.4041 13.5972 84.4302 19.585C88.4562 25.5727 89.9384 32.9144 88.5514 39.9952L90.3272 40.343Z" fill="#2A58CD"/>
</svg>
