<svg width="117" height="117" viewBox="0 0 117 117" fill="none" xmlns="http://www.w3.org/2000/svg">
<circle cx="58.5" cy="58.5" r="58.5" fill="#111110"/>
<path fill-rule="evenodd" clip-rule="evenodd" d="M85.1859 80.2524C87.1316 78.2395 90.3191 77.7503 92.3529 79.6743C96.3681 83.4727 99.7543 87.9294 102.338 92.8716C103.217 94.5519 102.937 96.5942 101.657 97.9927C90.9612 109.674 75.5866 117 58.5004 117C41.0486 117 25.3826 109.357 14.6644 97.2368C13.4082 95.8163 13.1649 93.7689 14.0726 92.104C16.4725 87.7021 19.5142 83.7001 23.0726 80.2251C25.0757 78.2692 28.2711 78.7079 30.2484 80.6899C37.2175 87.6759 46.8539 91.9995 57.5013 91.9995C68.3695 91.9994 78.1857 87.4951 85.1859 80.2524ZM87.8666 52.1684C87.9538 53.1006 88.0004 54.0455 88.0004 55.0005C88.0001 71.5688 74.5687 85.0005 58.0004 85.0005C41.4322 85.0003 28.0006 71.5687 28.0004 55.0005C28.0004 49.9889 29.2308 45.2645 31.4037 41.1118L87.8666 52.1684ZM46.6722 12.189C52.6598 8.1629 60.0017 6.68002 67.0824 8.06689C74.1633 9.45394 80.4039 13.5977 84.43 19.5854C88.4559 25.5731 89.9381 32.9149 88.5511 39.9956L90.3275 40.3433C91.411 40.5559 92.1178 41.6063 91.9056 42.6899L90.7914 48.3765C90.5789 49.46 89.5283 50.1665 88.4447 49.9546L30.9623 38.6948C29.8785 38.4823 29.1718 37.431 29.3841 36.3472L30.4984 30.6616C30.7107 29.5777 31.7612 28.8713 32.8451 29.0835L35.1537 29.5356C36.5407 22.4549 40.6847 16.2151 46.6722 12.189Z" fill="white"/>
</svg>
