<svg width="117" height="117" viewBox="0 0 117 117" fill="none" xmlns="http://www.w3.org/2000/svg">
<circle cx="58.5" cy="58.5" r="58.5" fill="#111110"/>
<path d="M85.1853 80.2528C87.131 78.2399 90.3185 77.7509 92.3523 79.6747C96.3676 83.4731 99.7536 87.9297 102.338 92.8719C103.216 94.5521 102.937 96.5946 101.657 97.993C90.9617 109.674 75.5868 117 58.5007 117C41.0488 117 25.383 109.357 14.6648 97.2362C13.4088 95.8157 13.1653 93.7683 14.073 92.1034C16.4727 87.7019 19.5139 83.7002 23.072 80.2255C25.075 78.2696 28.2705 78.7084 30.2478 80.6903C37.2169 87.6762 46.8534 91.9999 57.5007 91.9999C68.3691 91.9999 78.1851 87.4956 85.1853 80.2528ZM87.8669 52.1678C87.9542 53.1001 88.0007 54.0448 88.0007 54.9999C88.0007 71.5684 74.5692 84.9998 58.0007 84.9999C41.4322 84.9998 28.0007 71.5684 28.0007 54.9999C28.0008 49.9881 29.2311 45.264 31.4041 41.1112L87.8669 52.1678Z" fill="#EF0000"/>
<path d="M90.3272 40.343C91.411 40.5555 92.1178 41.6063 91.9055 42.6902L90.7917 48.3761C90.5794 49.4599 89.5284 50.1664 88.4445 49.9543L30.9627 38.6944C29.8788 38.4821 29.1722 37.4312 29.3845 36.3472L30.4983 30.6613C30.7106 29.5774 31.7615 28.8708 32.8455 29.0831L35.1541 29.5353C36.5412 22.4545 40.6847 16.2149 46.6723 12.1887C52.6599 8.16259 60.0019 6.67968 67.0827 8.0666C74.1636 9.45366 80.4041 13.5972 84.4303 19.585C88.4563 25.5727 89.9384 32.9144 88.5514 39.9952L90.3272 40.343Z" fill="#FFF500"/>
</svg>
