<svg width="117" height="117" viewBox="0 0 117 117" fill="none" xmlns="http://www.w3.org/2000/svg">
<circle cx="58.5" cy="58.5" r="58.5" fill="#EEEEEF"/>
<path d="M85.1847 80.2528C87.1304 78.2397 90.3187 77.7498 92.3527 79.6737C96.3682 83.4722 99.7548 87.9297 102.339 92.8719C103.217 94.5521 102.938 96.5947 101.657 97.993C90.962 109.674 75.5873 117 58.5011 117C41.0494 117 25.3834 109.357 14.6652 97.2372C13.4091 95.8168 13.165 93.7693 14.0724 92.1044C16.4721 87.7025 19.5142 83.7005 23.0724 80.2255C25.0754 78.2694 28.2709 78.7082 30.2482 80.6903C37.2173 87.6761 46.8538 91.9989 57.5011 91.9989C68.3692 91.9988 78.1846 87.4953 85.1847 80.2528ZM87.8673 52.1678C87.9546 53.1001 88.0011 54.0448 88.0011 54.9999C88.0011 71.5683 74.5694 84.9996 58.0011 84.9999C41.4326 84.9998 28.0011 71.5684 28.0011 54.9999C28.0011 49.9881 29.2314 45.264 31.4044 41.1112L87.8673 52.1678Z" fill="#EF0000"/>
<path d="M90.3272 40.343C91.411 40.5555 92.1177 41.6063 91.9054 42.6902L90.7916 48.3761C90.5793 49.4599 89.5283 50.1664 88.4445 49.9543L30.9627 38.6944C29.8787 38.4821 29.1721 37.4312 29.3845 36.3472L30.4982 30.6613C30.7106 29.5774 31.7614 28.8708 32.8454 29.0831L35.1541 29.5353C36.5411 22.4545 40.6846 16.2149 46.6722 12.1887C52.6599 8.16259 60.0018 6.67968 67.0826 8.0666C74.1635 9.45366 80.4041 13.5972 84.4302 19.585C88.4562 25.5727 89.9384 32.9144 88.5514 39.9952L90.3272 40.343Z" fill="#EF0000"/>
</svg>
