<svg width="117" height="117" viewBox="0 0 117 117" fill="none" xmlns="http://www.w3.org/2000/svg">
<circle cx="58.5" cy="58.5" r="58.5" fill="#EEEEEE" fill-opacity="0.937255"/>
<path d="M85.1857 80.2528C87.1314 78.2399 90.3189 77.7508 92.3527 79.6747C96.3679 83.4731 99.754 87.9297 102.338 92.8719C103.216 94.5522 102.937 96.5946 101.656 97.993C90.9611 109.674 75.5871 117 58.5011 117C41.0492 117 25.3825 109.357 14.6642 97.2372C13.408 95.8167 13.1647 93.7693 14.0724 92.1044C16.4722 87.7024 19.5139 83.7005 23.0724 80.2255C25.0754 78.2695 28.2709 78.7083 30.2482 80.6903C37.2173 87.6762 46.8537 91.9999 57.5011 91.9999C68.3694 91.9998 78.1855 87.4956 85.1857 80.2528ZM87.8673 52.1678C87.9546 53.1001 88.0011 54.0448 88.0011 54.9999C88.0011 71.5683 74.5695 84.9997 58.0011 84.9999C41.4326 84.9998 28.0011 71.5684 28.0011 54.9999C28.0011 49.9881 29.2314 45.264 31.4044 41.1112L87.8673 52.1678Z" fill="black"/>
<path d="M90.3272 40.343C91.411 40.5555 92.1178 41.6063 91.9055 42.6902L90.7917 48.3761C90.5794 49.4599 89.5284 50.1664 88.4445 49.9543L30.9627 38.6944C29.8788 38.4821 29.1722 37.4312 29.3845 36.3472L30.4983 30.6613C30.7106 29.5774 31.7615 28.8708 32.8455 29.0831L35.1541 29.5353C36.5412 22.4545 40.6847 16.2149 46.6723 12.1887C52.6599 8.16259 60.0019 6.67968 67.0827 8.0666C74.1636 9.45366 80.4041 13.5972 84.4303 19.585C88.4563 25.5727 89.9384 32.9144 88.5514 39.9952L90.3272 40.343Z" fill="black"/>
<circle cx="44" cy="52" r="4" fill="#EF0000"/>
<circle cx="72" cy="58" r="4" fill="#EF0000"/>
</svg>
